<?xml version="1.0" encoding="UTF-8" standalone="no"?>
<!DOCTYPE svg PUBLIC "-//W3C//DTD SVG 1.1//EN"
 "http://www.w3.org/Graphics/SVG/1.1/DTD/svg11.dtd">
<!-- Generated by graphviz version 9.0.0 (20230911.1827)
 -->
<!-- Pages: 1 -->
<svg width="1674pt" height="1274pt"
 viewBox="0.00 0.00 1674.00 1274.00" xmlns="http://www.w3.org/2000/svg" xmlns:xlink="http://www.w3.org/1999/xlink">
<g id="graph0" class="graph" transform="scale(1 1) rotate(0) translate(4 1270)">
<polygon fill="white" stroke="none" points="-4,4 -4,-1270 1670,-1270 1670,4 -4,4"/>
<!-- broadcaster -->
<g id="node1" class="node">
<title>broadcaster</title>
<ellipse fill="none" stroke="red" cx="983" cy="-1248" rx="53.4" ry="18"/>
<text text-anchor="middle" x="983" y="-1242.95" font-family="Times,serif" font-size="14.00">broadcaster</text>
</g>
<!-- nk -->
<g id="node32" class="node">
<title>nk</title>
<ellipse fill="none" stroke="black" cx="277" cy="-1176" rx="27" ry="18"/>
<text text-anchor="middle" x="277" y="-1170.95" font-family="Times,serif" font-size="14.00">nk</text>
</g>
<!-- broadcaster&#45;&gt;nk -->
<g id="edge84" class="edge">
<title>broadcaster&#45;&gt;nk</title>
<path fill="none" stroke="black" d="M932.23,-1241.97C797.58,-1228.62 433.6,-1192.53 314.95,-1180.76"/>
<polygon fill="black" stroke="black" points="315.42,-1177.29 305.12,-1179.79 314.73,-1184.26 315.42,-1177.29"/>
</g>
<!-- sr -->
<g id="node36" class="node">
<title>sr</title>
<ellipse fill="none" stroke="black" cx="947" cy="-1176" rx="27" ry="18"/>
<text text-anchor="middle" x="947" y="-1170.95" font-family="Times,serif" font-size="14.00">sr</text>
</g>
<!-- broadcaster&#45;&gt;sr -->
<g id="edge85" class="edge">
<title>broadcaster&#45;&gt;sr</title>
<path fill="none" stroke="black" d="M974.29,-1230.05C970.16,-1222.03 965.13,-1212.26 960.52,-1203.3"/>
<polygon fill="black" stroke="black" points="963.76,-1201.95 956.08,-1194.65 957.54,-1205.15 963.76,-1201.95"/>
</g>
<!-- sj -->
<g id="node46" class="node">
<title>sj</title>
<ellipse fill="none" stroke="black" cx="1019" cy="-1176" rx="27" ry="18"/>
<text text-anchor="middle" x="1019" y="-1170.95" font-family="Times,serif" font-size="14.00">sj</text>
</g>
<!-- broadcaster&#45;&gt;sj -->
<g id="edge86" class="edge">
<title>broadcaster&#45;&gt;sj</title>
<path fill="none" stroke="black" d="M991.71,-1230.05C995.84,-1222.03 1000.87,-1212.26 1005.48,-1203.3"/>
<polygon fill="black" stroke="black" points="1008.46,-1205.15 1009.92,-1194.65 1002.24,-1201.95 1008.46,-1205.15"/>
</g>
<!-- tp -->
<g id="node58" class="node">
<title>tp</title>
<ellipse fill="none" stroke="black" cx="1425" cy="-1176" rx="27" ry="18"/>
<text text-anchor="middle" x="1425" y="-1170.95" font-family="Times,serif" font-size="14.00">tp</text>
</g>
<!-- broadcaster&#45;&gt;tp -->
<g id="edge87" class="edge">
<title>broadcaster&#45;&gt;tp</title>
<path fill="none" stroke="black" d="M1030.72,-1239.44C1119.34,-1225.41 1307.56,-1195.6 1387.66,-1182.91"/>
<polygon fill="black" stroke="black" points="1387.84,-1186.43 1397.17,-1181.41 1386.75,-1179.51 1387.84,-1186.43"/>
</g>
<!-- rx -->
<g id="node2" class="node">
<title>rx</title>
<ellipse fill="none" stroke="blue" cx="880" cy="-18" rx="27" ry="18"/>
<text text-anchor="middle" x="880" y="-12.95" font-family="Times,serif" font-size="14.00">rx</text>
</g>
<!-- xf -->
<g id="node3" class="node">
<title>xf</title>
<ellipse fill="none" stroke="black" cx="431" cy="-940.5" rx="27" ry="18"/>
<text text-anchor="middle" x="431" y="-935.45" font-family="Times,serif" font-size="14.00">xf</text>
</g>
<!-- qr -->
<g id="node4" class="node">
<title>qr</title>
<ellipse fill="none" stroke="black" cx="245" cy="-862" rx="27" ry="18"/>
<text text-anchor="middle" x="245" y="-856.95" font-family="Times,serif" font-size="14.00">qr</text>
</g>
<!-- xf&#45;&gt;qr -->
<g id="edge1" class="edge">
<title>xf&#45;&gt;qr</title>
<path fill="none" stroke="black" d="M408.56,-930.27C376.03,-916.89 315.53,-892.01 277.93,-876.54"/>
<polygon fill="black" stroke="black" points="279.49,-873.4 268.92,-872.84 276.83,-879.88 279.49,-873.4"/>
</g>
<!-- bt -->
<g id="node5" class="node">
<title>bt</title>
<polygon fill="none" stroke="black" points="245,-1001 281.17,-1037.75 208.83,-1037.75 245,-1001"/>
<text text-anchor="middle" x="245" y="-1020.45" font-family="Times,serif" font-size="14.00">bt</text>
</g>
<!-- qr&#45;&gt;bt -->
<g id="edge2" class="edge">
<title>qr&#45;&gt;bt</title>
<path fill="none" stroke="black" d="M245,-880.38C245,-906.26 245,-955.48 245,-989.13"/>
<polygon fill="black" stroke="black" points="241.5,-988.81 245,-998.81 248.5,-988.81 241.5,-988.81"/>
</g>
<!-- zt -->
<g id="node6" class="node">
<title>zt</title>
<ellipse fill="none" stroke="black" cx="207" cy="-790" rx="27" ry="18"/>
<text text-anchor="middle" x="207" y="-784.95" font-family="Times,serif" font-size="14.00">zt</text>
</g>
<!-- qr&#45;&gt;zt -->
<g id="edge3" class="edge">
<title>qr&#45;&gt;zt</title>
<path fill="none" stroke="black" d="M236.19,-844.76C231.73,-836.55 226.2,-826.37 221.16,-817.09"/>
<polygon fill="black" stroke="black" points="224.33,-815.6 216.49,-808.48 218.18,-818.94 224.33,-815.6"/>
</g>
<!-- bt&#45;&gt;xf -->
<g id="edge28" class="edge">
<title>bt&#45;&gt;xf</title>
<path fill="none" stroke="black" d="M262.28,-1018.25C289.79,-1008.11 345.02,-987 390,-965 393.84,-963.12 397.81,-961.04 401.7,-958.91"/>
<polygon fill="black" stroke="black" points="403.38,-961.98 410.36,-954.01 399.93,-955.89 403.38,-961.98"/>
</g>
<!-- vg -->
<g id="node12" class="node">
<title>vg</title>
<polygon fill="none" stroke="black" points="559,-157 599.26,-193.75 518.74,-193.75 559,-157"/>
<text text-anchor="middle" x="559" y="-176.45" font-family="Times,serif" font-size="14.00">vg</text>
</g>
<!-- bt&#45;&gt;vg -->
<g id="edge29" class="edge">
<title>bt&#45;&gt;vg</title>
<path fill="none" stroke="black" d="M260.6,-1016.53C278.8,-1006.58 308.83,-988.03 328,-965 360.06,-926.5 376,-913.1 376,-863 376,-863 376,-863 376,-344 376,-269.71 461.82,-221.43 515.92,-198.38"/>
<polygon fill="black" stroke="black" points="516.97,-201.73 524.88,-194.68 514.31,-195.26 516.97,-201.73"/>
</g>
<!-- tl -->
<g id="node27" class="node">
<title>tl</title>
<ellipse fill="none" stroke="black" cx="150" cy="-561" rx="27" ry="18"/>
<text text-anchor="middle" x="150" y="-555.95" font-family="Times,serif" font-size="14.00">tl</text>
</g>
<!-- bt&#45;&gt;tl -->
<g id="edge30" class="edge">
<title>bt&#45;&gt;tl</title>
<path fill="none" stroke="black" d="M253.84,-1009.49C269.38,-981.63 300,-919.57 300,-863 300,-863 300,-863 300,-710.5 300,-644.99 226.86,-598.56 182.72,-576.51"/>
<polygon fill="black" stroke="black" points="184.35,-573.4 173.82,-572.21 181.3,-579.71 184.35,-573.4"/>
</g>
<!-- bt&#45;&gt;nk -->
<g id="edge31" class="edge">
<title>bt&#45;&gt;nk</title>
<path fill="none" stroke="black" d="M251.37,-1038.19C259.6,-1061.38 271.42,-1113.76 276.32,-1146.57"/>
<polygon fill="black" stroke="black" points="272.81,-1146.72 277.59,-1156.17 279.75,-1145.8 272.81,-1146.72"/>
</g>
<!-- pb -->
<g id="node35" class="node">
<title>pb</title>
<ellipse fill="none" stroke="black" cx="169" cy="-711.5" rx="27" ry="18"/>
<text text-anchor="middle" x="169" y="-706.45" font-family="Times,serif" font-size="14.00">pb</text>
</g>
<!-- bt&#45;&gt;pb -->
<g id="edge32" class="edge">
<title>bt&#45;&gt;pb</title>
<path fill="none" stroke="black" d="M235.81,-1010.33C228.51,-998.58 218.5,-981.23 212,-965 185.19,-898.05 180.93,-879.43 171,-808 167.91,-785.77 167.53,-760.35 167.85,-741.33"/>
<polygon fill="black" stroke="black" points="171.35,-741.45 168.11,-731.36 164.35,-741.27 171.35,-741.45"/>
</g>
<!-- zt&#45;&gt;bt -->
<g id="edge82" class="edge">
<title>zt&#45;&gt;bt</title>
<path fill="none" stroke="black" d="M206.26,-808.48C205.75,-826.49 205.69,-855.34 209,-880 214.47,-920.76 227.04,-966.66 235.78,-995.58"/>
<polygon fill="black" stroke="black" points="232.41,-996.53 238.7,-1005.06 239.1,-994.47 232.41,-996.53"/>
</g>
<!-- zt&#45;&gt;pb -->
<g id="edge83" class="edge">
<title>zt&#45;&gt;pb</title>
<path fill="none" stroke="black" d="M198.75,-772.4C193.92,-762.68 187.71,-750.17 182.21,-739.1"/>
<polygon fill="black" stroke="black" points="185.49,-737.82 177.9,-730.42 179.22,-740.94 185.49,-737.82"/>
</g>
<!-- xm -->
<g id="node7" class="node">
<title>xm</title>
<ellipse fill="none" stroke="black" cx="1421" cy="-711.5" rx="27" ry="18"/>
<text text-anchor="middle" x="1421" y="-706.45" font-family="Times,serif" font-size="14.00">xm</text>
</g>
<!-- gp -->
<g id="node8" class="node">
<title>gp</title>
<polygon fill="none" stroke="black" points="1457,-916 1497.26,-952.75 1416.74,-952.75 1457,-916"/>
<text text-anchor="middle" x="1457" y="-935.45" font-family="Times,serif" font-size="14.00">gp</text>
</g>
<!-- xm&#45;&gt;gp -->
<g id="edge4" class="edge">
<title>xm&#45;&gt;gp</title>
<path fill="none" stroke="black" d="M1423.71,-729.61C1429.71,-767.42 1444.17,-858.59 1451.91,-907.4"/>
<polygon fill="black" stroke="black" points="1448.42,-907.73 1453.44,-917.06 1455.33,-906.63 1448.42,-907.73"/>
</g>
<!-- cq -->
<g id="node9" class="node">
<title>cq</title>
<ellipse fill="none" stroke="black" cx="1459" cy="-633" rx="27" ry="18"/>
<text text-anchor="middle" x="1459" y="-627.95" font-family="Times,serif" font-size="14.00">cq</text>
</g>
<!-- xm&#45;&gt;cq -->
<g id="edge5" class="edge">
<title>xm&#45;&gt;cq</title>
<path fill="none" stroke="black" d="M1429.25,-693.9C1434.08,-684.18 1440.29,-671.67 1445.79,-660.6"/>
<polygon fill="black" stroke="black" points="1448.78,-662.44 1450.1,-651.92 1442.51,-659.32 1448.78,-662.44"/>
</g>
<!-- ls -->
<g id="node52" class="node">
<title>ls</title>
<polygon fill="none" stroke="black" points="1384,-157 1418.12,-193.75 1349.88,-193.75 1384,-157"/>
<text text-anchor="middle" x="1384" y="-176.45" font-family="Times,serif" font-size="14.00">ls</text>
</g>
<!-- gp&#45;&gt;ls -->
<g id="edge102" class="edge">
<title>gp&#45;&gt;ls</title>
<path fill="none" stroke="black" d="M1478.58,-935.03C1531.98,-922.58 1666,-882.25 1666,-791 1666,-791 1666,-791 1666,-344 1666,-295.62 1664.16,-274.14 1628,-242 1597.77,-215.13 1483.19,-195.95 1422.4,-187.43"/>
<polygon fill="black" stroke="black" points="1423.24,-184.02 1412.86,-186.13 1422.29,-190.95 1423.24,-184.02"/>
</g>
<!-- nv -->
<g id="node53" class="node">
<title>nv</title>
<ellipse fill="none" stroke="black" cx="1383" cy="-790" rx="27" ry="18"/>
<text text-anchor="middle" x="1383" y="-784.95" font-family="Times,serif" font-size="14.00">nv</text>
</g>
<!-- gp&#45;&gt;nv -->
<g id="edge103" class="edge">
<title>gp&#45;&gt;nv</title>
<path fill="none" stroke="black" d="M1447.85,-923.76C1441.04,-911.87 1431.64,-895.07 1424,-880 1413.61,-859.49 1402.76,-835.82 1394.83,-818.06"/>
<polygon fill="black" stroke="black" points="1398.06,-816.69 1390.81,-808.96 1391.65,-819.52 1398.06,-816.69"/>
</g>
<!-- df -->
<g id="node54" class="node">
<title>df</title>
<ellipse fill="none" stroke="black" cx="1307" cy="-862" rx="27" ry="18"/>
<text text-anchor="middle" x="1307" y="-856.95" font-family="Times,serif" font-size="14.00">df</text>
</g>
<!-- gp&#45;&gt;df -->
<g id="edge104" class="edge">
<title>gp&#45;&gt;df</title>
<path fill="none" stroke="black" d="M1440.08,-930.87C1415.41,-918.29 1369.13,-894.68 1338.18,-878.9"/>
<polygon fill="black" stroke="black" points="1339.78,-875.79 1329.28,-874.36 1336.6,-882.02 1339.78,-875.79"/>
</g>
<!-- mq -->
<g id="node56" class="node">
<title>mq</title>
<ellipse fill="none" stroke="black" cx="1497" cy="-561" rx="27" ry="18"/>
<text text-anchor="middle" x="1497" y="-555.95" font-family="Times,serif" font-size="14.00">mq</text>
</g>
<!-- gp&#45;&gt;mq -->
<g id="edge105" class="edge">
<title>gp&#45;&gt;mq</title>
<path fill="none" stroke="black" d="M1466.93,-924.62C1483.26,-898.67 1514,-842.92 1514,-791 1514,-791 1514,-791 1514,-710.5 1514,-668.53 1507.22,-620.33 1502.22,-590.51"/>
<polygon fill="black" stroke="black" points="1505.69,-590.05 1500.54,-580.79 1498.79,-591.24 1505.69,-590.05"/>
</g>
<!-- gp&#45;&gt;tp -->
<g id="edge106" class="edge">
<title>gp&#45;&gt;tp</title>
<path fill="none" stroke="black" d="M1458.56,-953.2C1457.95,-988.68 1443.75,-1095.72 1433.41,-1147.01"/>
<polygon fill="black" stroke="black" points="1430,-1146.22 1431.32,-1156.73 1436.84,-1147.69 1430,-1146.22"/>
</g>
<!-- cq&#45;&gt;gp -->
<g id="edge65" class="edge">
<title>cq&#45;&gt;gp</title>
<path fill="none" stroke="black" d="M1459.01,-651.3C1459,-691.46 1458.9,-794.16 1458,-880 1457.92,-887.91 1457.79,-896.42 1457.66,-904.45"/>
<polygon fill="black" stroke="black" points="1454.17,-904.19 1457.49,-914.25 1461.17,-904.31 1454.17,-904.19"/>
</g>
<!-- cq&#45;&gt;mq -->
<g id="edge66" class="edge">
<title>cq&#45;&gt;mq</title>
<path fill="none" stroke="black" d="M1467.81,-615.76C1472.27,-607.55 1477.8,-597.37 1482.84,-588.09"/>
<polygon fill="black" stroke="black" points="1485.82,-589.94 1487.51,-579.48 1479.67,-586.6 1485.82,-589.94"/>
</g>
<!-- zs -->
<g id="node10" class="node">
<title>zs</title>
<ellipse fill="none" stroke="black" cx="1159" cy="-862" rx="27" ry="18"/>
<text text-anchor="middle" x="1159" y="-856.95" font-family="Times,serif" font-size="14.00">zs</text>
</g>
<!-- ct -->
<g id="node11" class="node">
<title>ct</title>
<ellipse fill="none" stroke="black" cx="1197" cy="-790" rx="27" ry="18"/>
<text text-anchor="middle" x="1197" y="-784.95" font-family="Times,serif" font-size="14.00">ct</text>
</g>
<!-- zs&#45;&gt;ct -->
<g id="edge6" class="edge">
<title>zs&#45;&gt;ct</title>
<path fill="none" stroke="black" d="M1167.81,-844.76C1172.27,-836.55 1177.8,-826.37 1182.84,-817.09"/>
<polygon fill="black" stroke="black" points="1185.82,-818.94 1187.51,-808.48 1179.67,-815.6 1185.82,-818.94"/>
</g>
<!-- rb -->
<g id="node24" class="node">
<title>rb</title>
<polygon fill="none" stroke="black" points="1106,-687 1143.19,-723.75 1068.81,-723.75 1106,-687"/>
<text text-anchor="middle" x="1106" y="-706.45" font-family="Times,serif" font-size="14.00">rb</text>
</g>
<!-- ct&#45;&gt;rb -->
<g id="edge47" class="edge">
<title>ct&#45;&gt;rb</title>
<path fill="none" stroke="black" d="M1180.73,-775.32C1166.07,-762.99 1144.37,-744.76 1128.13,-731.11"/>
<polygon fill="black" stroke="black" points="1130.82,-728.79 1120.91,-725.03 1126.31,-734.15 1130.82,-728.79"/>
</g>
<!-- rt -->
<g id="node45" class="node">
<title>rt</title>
<ellipse fill="none" stroke="black" cx="1261" cy="-633" rx="27" ry="18"/>
<text text-anchor="middle" x="1261" y="-627.95" font-family="Times,serif" font-size="14.00">rt</text>
</g>
<!-- ct&#45;&gt;rt -->
<g id="edge48" class="edge">
<title>ct&#45;&gt;rt</title>
<path fill="none" stroke="black" d="M1203.97,-772.12C1214.98,-745.45 1236.51,-693.31 1249.74,-661.28"/>
<polygon fill="black" stroke="black" points="1252.88,-662.84 1253.46,-652.26 1246.41,-660.17 1252.88,-662.84"/>
</g>
<!-- lg -->
<g id="node13" class="node">
<title>lg</title>
<polygon fill="none" stroke="black" points="880,-72 916.17,-108.75 843.83,-108.75 880,-72"/>
<text text-anchor="middle" x="880" y="-91.45" font-family="Times,serif" font-size="14.00">lg</text>
</g>
<!-- vg&#45;&gt;lg -->
<g id="edge7" class="edge">
<title>vg&#45;&gt;lg</title>
<path fill="none" stroke="black" d="M579.57,-175.18C630.66,-161.97 764.32,-127.41 834.87,-109.17"/>
<polygon fill="black" stroke="black" points="835.36,-112.66 844.17,-106.76 833.61,-105.88 835.36,-112.66"/>
</g>
<!-- lg&#45;&gt;rx -->
<g id="edge68" class="edge">
<title>lg&#45;&gt;rx</title>
<path fill="none" stroke="black" d="M880,-71.29C880,-63.74 880,-55.33 880,-47.51"/>
<polygon fill="black" stroke="black" points="883.5,-47.78 880,-37.78 876.5,-47.78 883.5,-47.78"/>
</g>
<!-- dx -->
<g id="node14" class="node">
<title>dx</title>
<ellipse fill="none" stroke="black" cx="74" cy="-345" rx="27" ry="18"/>
<text text-anchor="middle" x="74" y="-339.95" font-family="Times,serif" font-size="14.00">dx</text>
</g>
<!-- dx&#45;&gt;bt -->
<g id="edge8" class="edge">
<title>dx&#45;&gt;bt</title>
<path fill="none" stroke="black" d="M60.08,-360.84C38.65,-385.32 0,-436.57 0,-488 0,-863 0,-863 0,-863 0,-912.03 5.55,-932.21 42,-965 89.52,-1007.75 166.25,-1019.87 210.51,-1023.25"/>
<polygon fill="black" stroke="black" points="210.11,-1026.74 220.31,-1023.88 210.56,-1019.75 210.11,-1026.74"/>
</g>
<!-- tz -->
<g id="node15" class="node">
<title>tz</title>
<ellipse fill="none" stroke="black" cx="188" cy="-266.5" rx="27" ry="18"/>
<text text-anchor="middle" x="188" y="-261.45" font-family="Times,serif" font-size="14.00">tz</text>
</g>
<!-- dx&#45;&gt;tz -->
<g id="edge9" class="edge">
<title>dx&#45;&gt;tz</title>
<path fill="none" stroke="black" d="M92.57,-331.54C110.87,-319.26 139.06,-300.34 160.07,-286.24"/>
<polygon fill="black" stroke="black" points="161.83,-289.28 168.18,-280.8 157.93,-283.47 161.83,-289.28"/>
</g>
<!-- tz&#45;&gt;bt -->
<g id="edge14" class="edge">
<title>tz&#45;&gt;bt</title>
<path fill="none" stroke="black" d="M210.46,-277.05C252.3,-296.54 338,-345.09 338,-416 338,-863 338,-863 338,-863 338,-921.06 292.31,-977.07 264.98,-1005.38"/>
<polygon fill="black" stroke="black" points="262.79,-1002.62 258.23,-1012.18 267.76,-1007.55 262.79,-1002.62"/>
</g>
<!-- tq -->
<g id="node16" class="node">
<title>tq</title>
<ellipse fill="none" stroke="black" cx="560" cy="-1025.5" rx="27" ry="18"/>
<text text-anchor="middle" x="560" y="-1020.45" font-family="Times,serif" font-size="14.00">tq</text>
</g>
<!-- jm -->
<g id="node17" class="node">
<title>jm</title>
<ellipse fill="none" stroke="black" cx="579" cy="-940.5" rx="27" ry="18"/>
<text text-anchor="middle" x="579" y="-935.45" font-family="Times,serif" font-size="14.00">jm</text>
</g>
<!-- tq&#45;&gt;jm -->
<g id="edge10" class="edge">
<title>tq&#45;&gt;jm</title>
<path fill="none" stroke="black" d="M563.94,-1007.3C566.41,-996.51 569.65,-982.33 572.5,-969.89"/>
<polygon fill="black" stroke="black" points="575.91,-970.68 574.73,-960.15 569.09,-969.12 575.91,-970.68"/>
</g>
<!-- kp -->
<g id="node33" class="node">
<title>kp</title>
<ellipse fill="none" stroke="black" cx="697" cy="-862" rx="27" ry="18"/>
<text text-anchor="middle" x="697" y="-856.95" font-family="Times,serif" font-size="14.00">kp</text>
</g>
<!-- jm&#45;&gt;kp -->
<g id="edge36" class="edge">
<title>jm&#45;&gt;kp</title>
<path fill="none" stroke="black" d="M597.96,-927.21C617.05,-914.83 646.75,-895.58 668.64,-881.38"/>
<polygon fill="black" stroke="black" points="670.33,-884.46 676.82,-876.08 666.52,-878.59 670.33,-884.46"/>
</g>
<!-- ml -->
<g id="node38" class="node">
<title>ml</title>
<polygon fill="none" stroke="black" points="767,-242 809.31,-278.75 724.69,-278.75 767,-242"/>
<text text-anchor="middle" x="767" y="-261.45" font-family="Times,serif" font-size="14.00">ml</text>
</g>
<!-- jm&#45;&gt;ml -->
<g id="edge37" class="edge">
<title>jm&#45;&gt;ml</title>
<path fill="none" stroke="black" d="M575.72,-922.2C570.78,-894.57 562,-838.75 562,-791 562,-791 562,-791 562,-416 562,-371.47 574.7,-356.56 608,-327 639.29,-299.23 684.77,-283.96 719.08,-275.87"/>
<polygon fill="black" stroke="black" points="719.77,-279.3 728.77,-273.72 718.25,-272.47 719.77,-279.3"/>
</g>
<!-- pr -->
<g id="node18" class="node">
<title>pr</title>
<ellipse fill="none" stroke="black" cx="1516" cy="-489" rx="27" ry="18"/>
<text text-anchor="middle" x="1516" y="-483.95" font-family="Times,serif" font-size="14.00">pr</text>
</g>
<!-- pr&#45;&gt;gp -->
<g id="edge11" class="edge">
<title>pr&#45;&gt;gp</title>
<path fill="none" stroke="black" d="M1523.11,-506.7C1533.6,-532.89 1552,-585.46 1552,-632 1552,-791 1552,-791 1552,-791 1552,-844.85 1507.12,-894.83 1479.05,-920.82"/>
<polygon fill="black" stroke="black" points="1476.85,-918.1 1471.74,-927.38 1481.52,-923.31 1476.85,-918.1"/>
</g>
<!-- pf -->
<g id="node19" class="node">
<title>pf</title>
<ellipse fill="none" stroke="black" cx="1516" cy="-417" rx="27" ry="18"/>
<text text-anchor="middle" x="1516" y="-411.95" font-family="Times,serif" font-size="14.00">pf</text>
</g>
<!-- pr&#45;&gt;pf -->
<g id="edge12" class="edge">
<title>pr&#45;&gt;pf</title>
<path fill="none" stroke="black" d="M1516,-470.7C1516,-463.41 1516,-454.73 1516,-446.54"/>
<polygon fill="black" stroke="black" points="1519.5,-446.62 1516,-436.62 1512.5,-446.62 1519.5,-446.62"/>
</g>
<!-- pf&#45;&gt;gp -->
<g id="edge78" class="edge">
<title>pf&#45;&gt;gp</title>
<path fill="none" stroke="black" d="M1491.04,-424.2C1439.9,-438.56 1328,-479.22 1328,-560 1328,-712.5 1328,-712.5 1328,-712.5 1328,-755.78 1329.01,-768.64 1347,-808 1363.85,-844.87 1376.91,-848.97 1403,-880 1414.05,-893.14 1426.96,-907.4 1437.38,-918.67"/>
<polygon fill="black" stroke="black" points="1434.72,-920.94 1444.1,-925.87 1439.84,-916.17 1434.72,-920.94"/>
</g>
<!-- nt -->
<g id="node48" class="node">
<title>nt</title>
<ellipse fill="none" stroke="black" cx="1573" cy="-345" rx="27" ry="18"/>
<text text-anchor="middle" x="1573" y="-339.95" font-family="Times,serif" font-size="14.00">nt</text>
</g>
<!-- pf&#45;&gt;nt -->
<g id="edge79" class="edge">
<title>pf&#45;&gt;nt</title>
<path fill="none" stroke="black" d="M1528.37,-400.81C1535.69,-391.82 1545.13,-380.23 1553.43,-370.03"/>
<polygon fill="black" stroke="black" points="1556.1,-372.3 1559.7,-362.33 1550.67,-367.88 1556.1,-372.3"/>
</g>
<!-- nb -->
<g id="node20" class="node">
<title>nb</title>
<polygon fill="none" stroke="black" points="794,-157 834.26,-193.75 753.74,-193.75 794,-157"/>
<text text-anchor="middle" x="794" y="-176.45" font-family="Times,serif" font-size="14.00">nb</text>
</g>
<!-- nb&#45;&gt;lg -->
<g id="edge13" class="edge">
<title>nb&#45;&gt;lg</title>
<path fill="none" stroke="black" d="M806.69,-168.25C820.77,-154.66 843.69,-132.55 860.15,-116.66"/>
<polygon fill="black" stroke="black" points="862.24,-119.51 867,-110.05 857.37,-114.47 862.24,-119.51"/>
</g>
<!-- kj -->
<g id="node21" class="node">
<title>kj</title>
<ellipse fill="none" stroke="black" cx="1102" cy="-1104" rx="27" ry="18"/>
<text text-anchor="middle" x="1102" y="-1098.95" font-family="Times,serif" font-size="14.00">kj</text>
</g>
<!-- fk -->
<g id="node22" class="node">
<title>fk</title>
<ellipse fill="none" stroke="black" cx="1102" cy="-1025.5" rx="27" ry="18"/>
<text text-anchor="middle" x="1102" y="-1020.45" font-family="Times,serif" font-size="14.00">fk</text>
</g>
<!-- kj&#45;&gt;fk -->
<g id="edge15" class="edge">
<title>kj&#45;&gt;fk</title>
<path fill="none" stroke="black" d="M1102,-1085.64C1102,-1076.64 1102,-1065.42 1102,-1055.17"/>
<polygon fill="black" stroke="black" points="1105.5,-1055.3 1102,-1045.3 1098.5,-1055.3 1105.5,-1055.3"/>
</g>
<!-- xh -->
<g id="node25" class="node">
<title>xh</title>
<ellipse fill="none" stroke="black" cx="1121" cy="-940.5" rx="27" ry="18"/>
<text text-anchor="middle" x="1121" y="-935.45" font-family="Times,serif" font-size="14.00">xh</text>
</g>
<!-- fk&#45;&gt;xh -->
<g id="edge107" class="edge">
<title>fk&#45;&gt;xh</title>
<path fill="none" stroke="black" d="M1105.94,-1007.3C1108.41,-996.51 1111.65,-982.33 1114.5,-969.89"/>
<polygon fill="black" stroke="black" points="1117.91,-970.68 1116.73,-960.15 1111.09,-969.12 1117.91,-970.68"/>
</g>
<!-- hx -->
<g id="node23" class="node">
<title>hx</title>
<ellipse fill="none" stroke="black" cx="1078" cy="-266.5" rx="27" ry="18"/>
<text text-anchor="middle" x="1078" y="-261.45" font-family="Times,serif" font-size="14.00">hx</text>
</g>
<!-- hx&#45;&gt;rb -->
<g id="edge16" class="edge">
<title>hx&#45;&gt;rb</title>
<path fill="none" stroke="black" d="M1069.35,-283.91C1056.02,-310.75 1032,-366.07 1032,-416 1032,-562 1032,-562 1032,-562 1032,-611.73 1065.66,-661.92 1087.57,-689.34"/>
<polygon fill="black" stroke="black" points="1084.73,-691.4 1093.8,-696.88 1090.13,-686.94 1084.73,-691.4"/>
</g>
<!-- rb&#45;&gt;zs -->
<g id="edge89" class="edge">
<title>rb&#45;&gt;zs</title>
<path fill="none" stroke="black" d="M1110.19,-724.25C1118.54,-747.64 1137.44,-800.59 1149.12,-833.32"/>
<polygon fill="black" stroke="black" points="1145.75,-834.3 1152.41,-842.54 1152.35,-831.95 1145.75,-834.3"/>
</g>
<!-- rb&#45;&gt;kj -->
<g id="edge90" class="edge">
<title>rb&#45;&gt;kj</title>
<path fill="none" stroke="black" d="M1139.31,-719.33C1168.45,-727.08 1209.67,-742.64 1233,-772 1258.16,-803.67 1252,-820.55 1252,-861 1252,-941.5 1252,-941.5 1252,-941.5 1252,-1010.58 1177.41,-1062.54 1133.42,-1087.18"/>
<polygon fill="black" stroke="black" points="1131.94,-1084 1124.82,-1091.85 1135.28,-1090.15 1131.94,-1084"/>
</g>
<!-- rb&#45;&gt;fk -->
<g id="edge91" class="edge">
<title>rb&#45;&gt;fk</title>
<path fill="none" stroke="black" d="M1103.21,-724.13C1094.96,-760.09 1072.07,-872.65 1085,-965 1086.48,-975.55 1089.36,-986.86 1092.34,-996.75"/>
<polygon fill="black" stroke="black" points="1088.97,-997.69 1095.34,-1006.15 1095.63,-995.56 1088.97,-997.69"/>
</g>
<!-- vc -->
<g id="node26" class="node">
<title>vc</title>
<polygon fill="none" stroke="black" points="966,-157 1005.24,-193.75 926.76,-193.75 966,-157"/>
<text text-anchor="middle" x="966" y="-176.45" font-family="Times,serif" font-size="14.00">vc</text>
</g>
<!-- rb&#45;&gt;vc -->
<g id="edge92" class="edge">
<title>rb&#45;&gt;vc</title>
<path fill="none" stroke="black" d="M1091.36,-700.93C1061,-679.81 994,-625.94 994,-562 994,-562 994,-562 994,-344 994,-293.76 980.68,-236 972.41,-204.99"/>
<polygon fill="black" stroke="black" points="975.86,-204.31 969.83,-195.59 969.11,-206.16 975.86,-204.31"/>
</g>
<!-- rb&#45;&gt;rt -->
<g id="edge93" class="edge">
<title>rb&#45;&gt;rt</title>
<path fill="none" stroke="black" d="M1122.29,-702.46C1147.64,-689.95 1196.98,-665.6 1229.46,-649.57"/>
<polygon fill="black" stroke="black" points="1230.99,-652.71 1238.41,-645.15 1227.89,-646.44 1230.99,-652.71"/>
</g>
<!-- rb&#45;&gt;sj -->
<g id="edge94" class="edge">
<title>rb&#45;&gt;sj</title>
<path fill="none" stroke="black" d="M1098.25,-724.21C1077.96,-747.64 1028,-803.03 1028,-861 1028,-1026.5 1028,-1026.5 1028,-1026.5 1028,-1068.42 1028,-1117 1025.69,-1146.86"/>
<polygon fill="black" stroke="black" points="1022.23,-1146.28 1024.75,-1156.57 1029.2,-1146.95 1022.23,-1146.28"/>
</g>
<!-- hq -->
<g id="node51" class="node">
<title>hq</title>
<ellipse fill="none" stroke="black" cx="1163" cy="-561" rx="27" ry="18"/>
<text text-anchor="middle" x="1163" y="-555.95" font-family="Times,serif" font-size="14.00">hq</text>
</g>
<!-- rb&#45;&gt;hq -->
<g id="edge95" class="edge">
<title>rb&#45;&gt;hq</title>
<path fill="none" stroke="black" d="M1112.65,-693.17C1122.44,-667.67 1140.83,-619.76 1152.47,-589.44"/>
<polygon fill="black" stroke="black" points="1155.71,-590.76 1156.02,-580.17 1149.17,-588.25 1155.71,-590.76"/>
</g>
<!-- xh&#45;&gt;zs -->
<g id="edge17" class="edge">
<title>xh&#45;&gt;zs</title>
<path fill="none" stroke="black" d="M1129.25,-922.9C1134.08,-913.18 1140.29,-900.67 1145.79,-889.6"/>
<polygon fill="black" stroke="black" points="1148.78,-891.44 1150.1,-880.92 1142.51,-888.32 1148.78,-891.44"/>
</g>
<!-- xh&#45;&gt;rb -->
<g id="edge18" class="edge">
<title>xh&#45;&gt;rb</title>
<path fill="none" stroke="black" d="M1119.85,-922.06C1117.17,-881.54 1110.53,-781.02 1107.52,-735.52"/>
<polygon fill="black" stroke="black" points="1111.03,-735.5 1106.88,-725.75 1104.04,-735.96 1111.03,-735.5"/>
</g>
<!-- vc&#45;&gt;lg -->
<g id="edge19" class="edge">
<title>vc&#45;&gt;lg</title>
<path fill="none" stroke="black" d="M953.31,-168.25C939.23,-154.66 916.31,-132.55 899.85,-116.66"/>
<polygon fill="black" stroke="black" points="902.63,-114.47 893,-110.05 897.76,-119.51 902.63,-114.47"/>
</g>
<!-- bn -->
<g id="node28" class="node">
<title>bn</title>
<ellipse fill="none" stroke="black" cx="93" cy="-489" rx="27" ry="18"/>
<text text-anchor="middle" x="93" y="-483.95" font-family="Times,serif" font-size="14.00">bn</text>
</g>
<!-- tl&#45;&gt;bn -->
<g id="edge20" class="edge">
<title>tl&#45;&gt;bn</title>
<path fill="none" stroke="black" d="M137.63,-544.81C130.31,-535.82 120.87,-524.23 112.57,-514.03"/>
<polygon fill="black" stroke="black" points="115.33,-511.88 106.3,-506.33 109.9,-516.3 115.33,-511.88"/>
</g>
<!-- bn&#45;&gt;bt -->
<g id="edge54" class="edge">
<title>bn&#45;&gt;bt</title>
<path fill="none" stroke="black" d="M89.64,-506.97C84.69,-533.52 76,-586.56 76,-632 76,-863 76,-863 76,-863 76,-913.68 91.22,-929.1 127,-965 151.97,-990.06 189.67,-1006.51 215.7,-1015.64"/>
<polygon fill="black" stroke="black" points="214.38,-1018.89 224.98,-1018.74 216.6,-1012.25 214.38,-1018.89"/>
</g>
<!-- sv -->
<g id="node42" class="node">
<title>sv</title>
<ellipse fill="none" stroke="black" cx="74" cy="-417" rx="27" ry="18"/>
<text text-anchor="middle" x="74" y="-411.95" font-family="Times,serif" font-size="14.00">sv</text>
</g>
<!-- bn&#45;&gt;sv -->
<g id="edge55" class="edge">
<title>bn&#45;&gt;sv</title>
<path fill="none" stroke="black" d="M88.4,-471.05C86.35,-463.49 83.87,-454.37 81.56,-445.85"/>
<polygon fill="black" stroke="black" points="84.95,-444.98 78.95,-436.25 78.2,-446.82 84.95,-444.98"/>
</g>
<!-- bb -->
<g id="node29" class="node">
<title>bb</title>
<ellipse fill="none" stroke="black" cx="1125" cy="-489" rx="27" ry="18"/>
<text text-anchor="middle" x="1125" y="-483.95" font-family="Times,serif" font-size="14.00">bb</text>
</g>
<!-- bb&#45;&gt;rb -->
<g id="edge21" class="edge">
<title>bb&#45;&gt;rb</title>
<path fill="none" stroke="black" d="M1123.52,-507.2C1120.37,-543.75 1112.96,-629.73 1108.86,-677.33"/>
<polygon fill="black" stroke="black" points="1105.39,-676.78 1108.02,-687.04 1112.37,-677.38 1105.39,-676.78"/>
</g>
<!-- kf -->
<g id="node30" class="node">
<title>kf</title>
<ellipse fill="none" stroke="black" cx="1106" cy="-417" rx="27" ry="18"/>
<text text-anchor="middle" x="1106" y="-411.95" font-family="Times,serif" font-size="14.00">kf</text>
</g>
<!-- bb&#45;&gt;kf -->
<g id="edge22" class="edge">
<title>bb&#45;&gt;kf</title>
<path fill="none" stroke="black" d="M1120.4,-471.05C1118.35,-463.49 1115.87,-454.37 1113.56,-445.85"/>
<polygon fill="black" stroke="black" points="1116.95,-444.98 1110.95,-436.25 1110.2,-446.82 1116.95,-444.98"/>
</g>
<!-- kf&#45;&gt;rb -->
<g id="edge45" class="edge">
<title>kf&#45;&gt;rb</title>
<path fill="none" stroke="black" d="M1099.11,-434.86C1095.3,-445.12 1090.94,-458.59 1089,-471 1077.38,-545.29 1090.57,-633.79 1099.38,-679.6"/>
<polygon fill="black" stroke="black" points="1095.94,-680.21 1101.32,-689.33 1102.8,-678.84 1095.94,-680.21"/>
</g>
<!-- ph -->
<g id="node44" class="node">
<title>ph</title>
<ellipse fill="none" stroke="black" cx="1106" cy="-345" rx="27" ry="18"/>
<text text-anchor="middle" x="1106" y="-339.95" font-family="Times,serif" font-size="14.00">ph</text>
</g>
<!-- kf&#45;&gt;ph -->
<g id="edge46" class="edge">
<title>kf&#45;&gt;ph</title>
<path fill="none" stroke="black" d="M1106,-398.7C1106,-391.41 1106,-382.73 1106,-374.54"/>
<polygon fill="black" stroke="black" points="1109.5,-374.62 1106,-364.62 1102.5,-374.62 1109.5,-374.62"/>
</g>
<!-- nn -->
<g id="node31" class="node">
<title>nn</title>
<ellipse fill="none" stroke="black" cx="309" cy="-1104" rx="27" ry="18"/>
<text text-anchor="middle" x="309" y="-1098.95" font-family="Times,serif" font-size="14.00">nn</text>
</g>
<!-- nn&#45;&gt;xf -->
<g id="edge23" class="edge">
<title>nn&#45;&gt;xf</title>
<path fill="none" stroke="black" d="M320.7,-1087.51C341.96,-1059.37 387.09,-999.63 412.54,-965.94"/>
<polygon fill="black" stroke="black" points="415.01,-968.47 418.25,-958.38 409.43,-964.25 415.01,-968.47"/>
</g>
<!-- nn&#45;&gt;bt -->
<g id="edge24" class="edge">
<title>nn&#45;&gt;bt</title>
<path fill="none" stroke="black" d="M296.36,-1087.89C286.51,-1076.11 272.74,-1059.66 261.94,-1046.74"/>
<polygon fill="black" stroke="black" points="264.77,-1044.67 255.67,-1039.25 259.4,-1049.16 264.77,-1044.67"/>
</g>
<!-- nk&#45;&gt;bt -->
<g id="edge25" class="edge">
<title>nk&#45;&gt;bt</title>
<path fill="none" stroke="black" d="M269.02,-1158.54C260.42,-1131.98 248.93,-1079.59 244.9,-1049.4"/>
<polygon fill="black" stroke="black" points="248.38,-1049.03 243.82,-1039.47 241.42,-1049.79 248.38,-1049.03"/>
</g>
<!-- nk&#45;&gt;nn -->
<g id="edge26" class="edge">
<title>nk&#45;&gt;nn</title>
<path fill="none" stroke="black" d="M284.58,-1158.41C288.21,-1150.48 292.64,-1140.78 296.73,-1131.84"/>
<polygon fill="black" stroke="black" points="299.87,-1133.4 300.84,-1122.85 293.5,-1130.49 299.87,-1133.4"/>
</g>
<!-- vk -->
<g id="node34" class="node">
<title>vk</title>
<ellipse fill="none" stroke="black" cx="697" cy="-790" rx="27" ry="18"/>
<text text-anchor="middle" x="697" y="-784.95" font-family="Times,serif" font-size="14.00">vk</text>
</g>
<!-- kp&#45;&gt;vk -->
<g id="edge27" class="edge">
<title>kp&#45;&gt;vk</title>
<path fill="none" stroke="black" d="M697,-843.7C697,-836.41 697,-827.73 697,-819.54"/>
<polygon fill="black" stroke="black" points="700.5,-819.62 697,-809.62 693.5,-819.62 700.5,-819.62"/>
</g>
<!-- tk -->
<g id="node55" class="node">
<title>tk</title>
<ellipse fill="none" stroke="black" cx="778" cy="-711.5" rx="27" ry="18"/>
<text text-anchor="middle" x="778" y="-706.45" font-family="Times,serif" font-size="14.00">tk</text>
</g>
<!-- vk&#45;&gt;tk -->
<g id="edge64" class="edge">
<title>vk&#45;&gt;tk</title>
<path fill="none" stroke="black" d="M712.24,-774.61C724.23,-763.28 741.14,-747.31 754.81,-734.4"/>
<polygon fill="black" stroke="black" points="756.87,-737.27 761.73,-727.86 752.06,-732.19 756.87,-737.27"/>
</g>
<!-- kq -->
<g id="node41" class="node">
<title>kq</title>
<ellipse fill="none" stroke="black" cx="150" cy="-633" rx="27" ry="18"/>
<text text-anchor="middle" x="150" y="-627.95" font-family="Times,serif" font-size="14.00">kq</text>
</g>
<!-- pb&#45;&gt;kq -->
<g id="edge96" class="edge">
<title>pb&#45;&gt;kq</title>
<path fill="none" stroke="black" d="M164.78,-693.52C162.49,-684.28 159.59,-672.6 156.96,-662.04"/>
<polygon fill="black" stroke="black" points="160.44,-661.53 154.64,-652.66 153.65,-663.21 160.44,-661.53"/>
</g>
<!-- vs -->
<g id="node37" class="node">
<title>vs</title>
<ellipse fill="none" stroke="black" cx="560" cy="-1104" rx="27" ry="18"/>
<text text-anchor="middle" x="560" y="-1098.95" font-family="Times,serif" font-size="14.00">vs</text>
</g>
<!-- sr&#45;&gt;vs -->
<g id="edge33" class="edge">
<title>sr&#45;&gt;vs</title>
<path fill="none" stroke="black" d="M921.01,-1170.3C854.03,-1158.18 675.35,-1125.87 597.33,-1111.75"/>
<polygon fill="black" stroke="black" points="598.09,-1108.33 587.62,-1110 596.84,-1115.22 598.09,-1108.33"/>
</g>
<!-- sr&#45;&gt;ml -->
<g id="edge34" class="edge">
<title>sr&#45;&gt;ml</title>
<path fill="none" stroke="black" d="M941.4,-1158.07C938,-1130.51 938,-1074.2 938,-1026.5 938,-1026.5 938,-1026.5 938,-416 938,-347.5 859.47,-304.7 808.74,-283.54"/>
<polygon fill="black" stroke="black" points="810.05,-280.29 799.47,-279.79 807.43,-286.78 810.05,-280.29"/>
</g>
<!-- vs&#45;&gt;tq -->
<g id="edge40" class="edge">
<title>vs&#45;&gt;tq</title>
<path fill="none" stroke="black" d="M560,-1085.64C560,-1076.64 560,-1065.42 560,-1055.17"/>
<polygon fill="black" stroke="black" points="563.5,-1055.3 560,-1045.3 556.5,-1055.3 563.5,-1055.3"/>
</g>
<!-- vs&#45;&gt;ml -->
<g id="edge41" class="edge">
<title>vs&#45;&gt;ml</title>
<path fill="none" stroke="black" d="M547.45,-1087.58C526.33,-1060.04 486,-999.79 486,-941.5 486,-941.5 486,-941.5 486,-416 486,-371.27 497.85,-354.67 533,-327 589.41,-282.59 675.08,-270.97 725.6,-268.14"/>
<polygon fill="black" stroke="black" points="725.7,-271.64 735.53,-267.69 725.39,-264.65 725.7,-271.64"/>
</g>
<!-- ml&#45;&gt;tq -->
<g id="edge71" class="edge">
<title>ml&#45;&gt;tq</title>
<path fill="none" stroke="black" d="M734.61,-269.74C692.55,-274.21 618.87,-287.51 571,-327 536.5,-355.47 524,-371.27 524,-416 524,-863 524,-863 524,-863 524,-911.1 539.4,-965.37 550.06,-997.16"/>
<polygon fill="black" stroke="black" points="546.66,-998.06 553.24,-1006.37 553.28,-995.77 546.66,-998.06"/>
</g>
<!-- ml&#45;&gt;nb -->
<g id="edge72" class="edge">
<title>ml&#45;&gt;nb</title>
<path fill="none" stroke="black" d="M773.13,-246.67C777.18,-234.22 782.5,-217.84 786.76,-204.75"/>
<polygon fill="black" stroke="black" points="790.07,-205.88 789.84,-195.29 783.42,-203.72 790.07,-205.88"/>
</g>
<!-- ml&#45;&gt;kp -->
<g id="edge73" class="edge">
<title>ml&#45;&gt;kp</title>
<path fill="none" stroke="black" d="M789.56,-279.25C827.51,-300.82 900,-350.59 900,-416 900,-712.5 900,-712.5 900,-712.5 900,-794.17 791.65,-835.77 733.26,-852.26"/>
<polygon fill="black" stroke="black" points="732.5,-848.84 723.76,-854.83 734.33,-855.59 732.5,-848.84"/>
</g>
<!-- ml&#45;&gt;vk -->
<g id="edge74" class="edge">
<title>ml&#45;&gt;vk</title>
<path fill="none" stroke="black" d="M725.56,-279.2C698.91,-288.5 665.07,-303.85 642,-327 611.12,-357.98 600,-372.26 600,-416 600,-634 600,-634 600,-634 600,-688.66 643.88,-739.91 672.62,-767.61"/>
<polygon fill="black" stroke="black" points="670.18,-770.13 679.88,-774.4 674.96,-765.01 670.18,-770.13"/>
</g>
<!-- ml&#45;&gt;sr -->
<g id="edge75" class="edge">
<title>ml&#45;&gt;sr</title>
<path fill="none" stroke="black" d="M809.65,-279.23C865.52,-298.56 956,-342.47 956,-416 956,-1026.5 956,-1026.5 956,-1026.5 956,-1068.42 956,-1117 953.69,-1146.86"/>
<polygon fill="black" stroke="black" points="950.23,-1146.28 952.75,-1156.57 957.2,-1146.95 950.23,-1146.28"/>
</g>
<!-- sh -->
<g id="node39" class="node">
<title>sh</title>
<ellipse fill="none" stroke="black" cx="778" cy="-633" rx="27" ry="18"/>
<text text-anchor="middle" x="778" y="-627.95" font-family="Times,serif" font-size="14.00">sh</text>
</g>
<!-- ml&#45;&gt;sh -->
<g id="edge76" class="edge">
<title>ml&#45;&gt;sh</title>
<path fill="none" stroke="black" d="M774.93,-279.23C790.59,-303.58 824,-361.87 824,-416 824,-490 824,-490 824,-490 824,-532.09 805.48,-577.94 791.94,-605.83"/>
<polygon fill="black" stroke="black" points="788.91,-604.08 787.55,-614.58 795.16,-607.22 788.91,-604.08"/>
</g>
<!-- ml&#45;&gt;tk -->
<g id="edge77" class="edge">
<title>ml&#45;&gt;tk</title>
<path fill="none" stroke="black" d="M781.02,-278.96C807.44,-301.96 862,-356.63 862,-416 862,-562 862,-562 862,-562 862,-611.98 825.51,-660.59 800.63,-687.92"/>
<polygon fill="black" stroke="black" points="798.35,-685.23 794.05,-694.92 803.45,-690.03 798.35,-685.23"/>
</g>
<!-- zk -->
<g id="node40" class="node">
<title>zk</title>
<ellipse fill="none" stroke="black" cx="750" cy="-561" rx="27" ry="18"/>
<text text-anchor="middle" x="750" y="-555.95" font-family="Times,serif" font-size="14.00">zk</text>
</g>
<!-- sh&#45;&gt;zk -->
<g id="edge35" class="edge">
<title>sh&#45;&gt;zk</title>
<path fill="none" stroke="black" d="M771.36,-615.41C768.23,-607.57 764.4,-597.99 760.85,-589.13"/>
<polygon fill="black" stroke="black" points="764.11,-587.86 757.15,-579.88 757.61,-590.46 764.11,-587.86"/>
</g>
<!-- zk&#45;&gt;ml -->
<g id="edge69" class="edge">
<title>zk&#45;&gt;ml</title>
<path fill="none" stroke="black" d="M735.49,-545.63C699.28,-507.98 611.06,-404.07 657,-327 669.36,-306.26 691.74,-292.31 713.1,-283.17"/>
<polygon fill="black" stroke="black" points="714.38,-286.43 722.38,-279.49 711.8,-279.92 714.38,-286.43"/>
</g>
<!-- ps -->
<g id="node57" class="node">
<title>ps</title>
<ellipse fill="none" stroke="black" cx="750" cy="-489" rx="27" ry="18"/>
<text text-anchor="middle" x="750" y="-483.95" font-family="Times,serif" font-size="14.00">ps</text>
</g>
<!-- zk&#45;&gt;ps -->
<g id="edge70" class="edge">
<title>zk&#45;&gt;ps</title>
<path fill="none" stroke="black" d="M750,-542.7C750,-535.41 750,-526.73 750,-518.54"/>
<polygon fill="black" stroke="black" points="753.5,-518.62 750,-508.62 746.5,-518.62 753.5,-518.62"/>
</g>
<!-- kq&#45;&gt;bt -->
<g id="edge38" class="edge">
<title>kq&#45;&gt;bt</title>
<path fill="none" stroke="black" d="M143.4,-650.9C133,-679.08 114,-737.62 114,-789 114,-863 114,-863 114,-863 114,-929.94 182.73,-984.64 220.62,-1009.71"/>
<polygon fill="black" stroke="black" points="218.39,-1012.44 228.7,-1014.89 222.17,-1006.55 218.39,-1012.44"/>
</g>
<!-- kq&#45;&gt;tl -->
<g id="edge39" class="edge">
<title>kq&#45;&gt;tl</title>
<path fill="none" stroke="black" d="M150,-614.7C150,-607.41 150,-598.73 150,-590.54"/>
<polygon fill="black" stroke="black" points="153.5,-590.62 150,-580.62 146.5,-590.62 153.5,-590.62"/>
</g>
<!-- sv&#45;&gt;bt -->
<g id="edge42" class="edge">
<title>sv&#45;&gt;bt</title>
<path fill="none" stroke="black" d="M66.89,-434.7C56.4,-460.89 38,-513.46 38,-560 38,-863 38,-863 38,-863 38,-912.73 47.63,-931.08 84,-965 120.12,-998.69 176.97,-1013.7 212.55,-1020.09"/>
<polygon fill="black" stroke="black" points="211.82,-1023.52 222.25,-1021.7 212.96,-1016.61 211.82,-1023.52"/>
</g>
<!-- sv&#45;&gt;dx -->
<g id="edge43" class="edge">
<title>sv&#45;&gt;dx</title>
<path fill="none" stroke="black" d="M74,-398.7C74,-391.41 74,-382.73 74,-374.54"/>
<polygon fill="black" stroke="black" points="77.5,-374.62 74,-364.62 70.5,-374.62 77.5,-374.62"/>
</g>
<!-- gs -->
<g id="node43" class="node">
<title>gs</title>
<ellipse fill="none" stroke="black" cx="1592" cy="-266.5" rx="27" ry="18"/>
<text text-anchor="middle" x="1592" y="-261.45" font-family="Times,serif" font-size="14.00">gs</text>
</g>
<!-- gs&#45;&gt;gp -->
<g id="edge44" class="edge">
<title>gs&#45;&gt;gp</title>
<path fill="none" stroke="black" d="M1598.77,-284.11C1609.2,-311.23 1628,-366.92 1628,-416 1628,-791 1628,-791 1628,-791 1628,-864.87 1535.91,-910.29 1486.89,-929.24"/>
<polygon fill="black" stroke="black" points="1485.85,-925.89 1477.7,-932.66 1488.29,-932.45 1485.85,-925.89"/>
</g>
<!-- ph&#45;&gt;hx -->
<g id="edge59" class="edge">
<title>ph&#45;&gt;hx</title>
<path fill="none" stroke="black" d="M1099.79,-327.02C1096.34,-317.61 1091.98,-305.69 1088.06,-294.98"/>
<polygon fill="black" stroke="black" points="1091.44,-294.04 1084.72,-285.85 1084.87,-296.45 1091.44,-294.04"/>
</g>
<!-- ph&#45;&gt;rb -->
<g id="edge60" class="edge">
<title>ph&#45;&gt;rb</title>
<path fill="none" stroke="black" d="M1119.65,-360.96C1151.3,-397.5 1225.03,-494.5 1199,-579 1185.07,-624.22 1148.92,-667.12 1126.01,-691"/>
<polygon fill="black" stroke="black" points="1123.81,-688.25 1119.3,-697.83 1128.81,-693.15 1123.81,-688.25"/>
</g>
<!-- rt&#45;&gt;hq -->
<g id="edge58" class="edge">
<title>rt&#45;&gt;hq</title>
<path fill="none" stroke="black" d="M1243.03,-619.16C1228.24,-608.6 1207.06,-593.47 1190.21,-581.43"/>
<polygon fill="black" stroke="black" points="1192.26,-578.6 1182.09,-575.64 1188.2,-584.3 1192.26,-578.6"/>
</g>
<!-- sj&#45;&gt;kj -->
<g id="edge49" class="edge">
<title>sj&#45;&gt;kj</title>
<path fill="none" stroke="black" d="M1035.4,-1161.17C1047.22,-1151.2 1063.4,-1137.56 1076.85,-1126.21"/>
<polygon fill="black" stroke="black" points="1079.09,-1128.9 1084.48,-1119.78 1074.58,-1123.55 1079.09,-1128.9"/>
</g>
<!-- sj&#45;&gt;rb -->
<g id="edge50" class="edge">
<title>sj&#45;&gt;rb</title>
<path fill="none" stroke="black" d="M1013.4,-1158.07C1010,-1130.51 1010,-1074.2 1010,-1026.5 1010,-1026.5 1010,-1026.5 1010,-861 1010,-808.47 1051.03,-758.05 1079.65,-731.62"/>
<polygon fill="black" stroke="black" points="1081.74,-734.44 1086.94,-725.21 1077.12,-729.19 1081.74,-734.44"/>
</g>
<!-- kh -->
<g id="node47" class="node">
<title>kh</title>
<ellipse fill="none" stroke="black" cx="693" cy="-345" rx="27" ry="18"/>
<text text-anchor="middle" x="693" y="-339.95" font-family="Times,serif" font-size="14.00">kh</text>
</g>
<!-- kh&#45;&gt;ml -->
<g id="edge51" class="edge">
<title>kh&#45;&gt;ml</title>
<path fill="none" stroke="black" d="M707.27,-329.25C718.84,-317.28 735.27,-300.31 747.96,-287.18"/>
<polygon fill="black" stroke="black" points="750.19,-289.91 754.63,-280.29 745.16,-285.04 750.19,-289.91"/>
</g>
<!-- nt&#45;&gt;gp -->
<g id="edge52" class="edge">
<title>nt&#45;&gt;gp</title>
<path fill="none" stroke="black" d="M1576.36,-362.97C1581.31,-389.52 1590,-442.56 1590,-488 1590,-791 1590,-791 1590,-791 1590,-854.22 1522.28,-902.83 1483.48,-925.49"/>
<polygon fill="black" stroke="black" points="1482.15,-922.23 1475.16,-930.19 1485.59,-928.32 1482.15,-922.23"/>
</g>
<!-- nt&#45;&gt;gs -->
<g id="edge53" class="edge">
<title>nt&#45;&gt;gs</title>
<path fill="none" stroke="black" d="M1577.22,-327.02C1579.51,-317.78 1582.41,-306.1 1585.04,-295.54"/>
<polygon fill="black" stroke="black" points="1588.35,-296.71 1587.36,-286.16 1581.56,-295.03 1588.35,-296.71"/>
</g>
<!-- lx -->
<g id="node49" class="node">
<title>lx</title>
<ellipse fill="none" stroke="black" cx="1393" cy="-1104" rx="27" ry="18"/>
<text text-anchor="middle" x="1393" y="-1098.95" font-family="Times,serif" font-size="14.00">lx</text>
</g>
<!-- lx&#45;&gt;gp -->
<g id="edge56" class="edge">
<title>lx&#45;&gt;gp</title>
<path fill="none" stroke="black" d="M1399.61,-1086.32C1411.21,-1057.04 1435.25,-996.38 1448.23,-963.62"/>
<polygon fill="black" stroke="black" points="1451.48,-964.92 1451.91,-954.34 1444.98,-962.34 1451.48,-964.92"/>
</g>
<!-- ff -->
<g id="node50" class="node">
<title>ff</title>
<ellipse fill="none" stroke="black" cx="1355" cy="-1025.5" rx="27" ry="18"/>
<text text-anchor="middle" x="1355" y="-1020.45" font-family="Times,serif" font-size="14.00">ff</text>
</g>
<!-- lx&#45;&gt;ff -->
<g id="edge57" class="edge">
<title>lx&#45;&gt;ff</title>
<path fill="none" stroke="black" d="M1384.75,-1086.4C1379.92,-1076.68 1373.71,-1064.17 1368.21,-1053.1"/>
<polygon fill="black" stroke="black" points="1371.49,-1051.82 1363.9,-1044.42 1365.22,-1054.94 1371.49,-1051.82"/>
</g>
<!-- ff&#45;&gt;gp -->
<g id="edge80" class="edge">
<title>ff&#45;&gt;gp</title>
<path fill="none" stroke="black" d="M1371.39,-1011.16C1388.33,-997.38 1414.91,-975.75 1433.96,-960.25"/>
<polygon fill="black" stroke="black" points="1435.91,-963.17 1441.46,-954.15 1431.49,-957.74 1435.91,-963.17"/>
</g>
<!-- ff&#45;&gt;df -->
<g id="edge81" class="edge">
<title>ff&#45;&gt;df</title>
<path fill="none" stroke="black" d="M1349.95,-1007.52C1341.69,-979.7 1325.18,-924.16 1315.21,-890.62"/>
<polygon fill="black" stroke="black" points="1318.61,-889.79 1312.41,-881.2 1311.9,-891.78 1318.61,-889.79"/>
</g>
<!-- hq&#45;&gt;bb -->
<g id="edge67" class="edge">
<title>hq&#45;&gt;bb</title>
<path fill="none" stroke="black" d="M1154.19,-543.76C1149.73,-535.55 1144.2,-525.37 1139.16,-516.09"/>
<polygon fill="black" stroke="black" points="1142.33,-514.6 1134.49,-507.48 1136.18,-517.94 1142.33,-514.6"/>
</g>
<!-- ls&#45;&gt;lg -->
<g id="edge61" class="edge">
<title>ls&#45;&gt;lg</title>
<path fill="none" stroke="black" d="M1364.55,-177.3C1290.52,-165.11 1025.28,-121.43 921.78,-104.38"/>
<polygon fill="black" stroke="black" points="922.49,-100.95 912.05,-102.78 921.35,-107.86 922.49,-100.95"/>
</g>
<!-- nv&#45;&gt;xm -->
<g id="edge62" class="edge">
<title>nv&#45;&gt;xm</title>
<path fill="none" stroke="black" d="M1391.25,-772.4C1396.08,-762.68 1402.29,-750.17 1407.79,-739.1"/>
<polygon fill="black" stroke="black" points="1410.78,-740.94 1412.1,-730.42 1404.51,-737.82 1410.78,-740.94"/>
</g>
<!-- df&#45;&gt;nv -->
<g id="edge63" class="edge">
<title>df&#45;&gt;nv</title>
<path fill="none" stroke="black" d="M1322.38,-846.83C1332.99,-837.06 1347.3,-823.88 1359.35,-812.78"/>
<polygon fill="black" stroke="black" points="1361.55,-815.52 1366.53,-806.17 1356.8,-810.37 1361.55,-815.52"/>
</g>
<!-- tk&#45;&gt;sh -->
<g id="edge101" class="edge">
<title>tk&#45;&gt;sh</title>
<path fill="none" stroke="black" d="M778,-693.14C778,-684.14 778,-672.92 778,-662.67"/>
<polygon fill="black" stroke="black" points="781.5,-662.8 778,-652.8 774.5,-662.8 781.5,-662.8"/>
</g>
<!-- mq&#45;&gt;pr -->
<g id="edge88" class="edge">
<title>mq&#45;&gt;pr</title>
<path fill="none" stroke="black" d="M1501.6,-543.05C1503.65,-535.49 1506.13,-526.37 1508.44,-517.85"/>
<polygon fill="black" stroke="black" points="1511.8,-518.82 1511.05,-508.25 1505.05,-516.98 1511.8,-518.82"/>
</g>
<!-- ps&#45;&gt;ml -->
<g id="edge108" class="edge">
<title>ps&#45;&gt;ml</title>
<path fill="none" stroke="black" d="M756.89,-471.14C760.7,-460.88 765.06,-447.41 767,-435 775.02,-383.77 771.86,-322.63 769.21,-290.25"/>
<polygon fill="black" stroke="black" points="772.72,-290.13 768.35,-280.48 765.74,-290.75 772.72,-290.13"/>
</g>
<!-- qz -->
<g id="node59" class="node">
<title>qz</title>
<ellipse fill="none" stroke="black" cx="731" cy="-417" rx="27" ry="18"/>
<text text-anchor="middle" x="731" y="-411.95" font-family="Times,serif" font-size="14.00">qz</text>
</g>
<!-- ps&#45;&gt;qz -->
<g id="edge109" class="edge">
<title>ps&#45;&gt;qz</title>
<path fill="none" stroke="black" d="M745.4,-471.05C743.35,-463.49 740.87,-454.37 738.56,-445.85"/>
<polygon fill="black" stroke="black" points="741.95,-444.98 735.95,-436.25 735.2,-446.82 741.95,-444.98"/>
</g>
<!-- tp&#45;&gt;gp -->
<g id="edge99" class="edge">
<title>tp&#45;&gt;gp</title>
<path fill="none" stroke="black" d="M1423.61,-1157.83C1425.44,-1116.35 1439.77,-1010.7 1449.7,-964.13"/>
<polygon fill="black" stroke="black" points="1453.06,-965.16 1451.9,-954.62 1446.24,-963.58 1453.06,-965.16"/>
</g>
<!-- tp&#45;&gt;lx -->
<g id="edge100" class="edge">
<title>tp&#45;&gt;lx</title>
<path fill="none" stroke="black" d="M1417.42,-1158.41C1413.79,-1150.48 1409.36,-1140.78 1405.27,-1131.84"/>
<polygon fill="black" stroke="black" points="1408.5,-1130.49 1401.16,-1122.85 1402.13,-1133.4 1408.5,-1130.49"/>
</g>
<!-- qz&#45;&gt;ml -->
<g id="edge97" class="edge">
<title>qz&#45;&gt;ml</title>
<path fill="none" stroke="black" d="M735.13,-398.97C741.62,-372.18 754.23,-320.2 761.49,-290.25"/>
<polygon fill="black" stroke="black" points="764.84,-291.26 763.8,-280.72 758.04,-289.61 764.84,-291.26"/>
</g>
<!-- qz&#45;&gt;kh -->
<g id="edge98" class="edge">
<title>qz&#45;&gt;kh</title>
<path fill="none" stroke="black" d="M722.19,-399.76C717.73,-391.55 712.2,-381.37 707.16,-372.09"/>
<polygon fill="black" stroke="black" points="710.33,-370.6 702.49,-363.48 704.18,-373.94 710.33,-370.6"/>
</g>
</g>
</svg>
