<?xml version="1.0" encoding="UTF-8" standalone="no"?>
<!DOCTYPE svg PUBLIC "-//W3C//DTD SVG 1.1//EN"
 "http://www.w3.org/Graphics/SVG/1.1/DTD/svg11.dtd">
<!-- Generated by graphviz version 9.0.0 (20230911.1827)
 -->
<!-- Pages: 1 -->
<svg width="614pt" height="404pt"
 viewBox="0.00 0.00 614.00 404.00" xmlns="http://www.w3.org/2000/svg" xmlns:xlink="http://www.w3.org/1999/xlink">
<g id="graph0" class="graph" transform="scale(1 1) rotate(0) translate(4 400)">
<polygon fill="white" stroke="none" points="-4,4 -4,-400 610,-400 610,4 -4,4"/>
<!-- bvb -->
<g id="node1" class="node">
<title>bvb</title>
<ellipse fill="none" stroke="black" cx="437" cy="-162" rx="27" ry="18"/>
<text text-anchor="middle" x="437" y="-156.95" font-family="Times,serif" font-size="14.00">bvb</text>
</g>
<!-- hfx -->
<g id="node2" class="node">
<title>hfx</title>
<ellipse fill="none" stroke="black" cx="437" cy="-18" rx="27" ry="18"/>
<text text-anchor="middle" x="437" y="-12.95" font-family="Times,serif" font-size="14.00">hfx</text>
</g>
<!-- bvb&#45;&#45;hfx -->
<g id="edge1" class="edge">
<title>bvb&#45;&#45;hfx</title>
<path fill="none" stroke="black" d="M437,-143.59C437,-116.19 437,-63.32 437,-36.11"/>
</g>
<!-- xhk -->
<g id="node3" class="node">
<title>xhk</title>
<ellipse fill="none" stroke="black" cx="492" cy="-90" rx="27" ry="18"/>
<text text-anchor="middle" x="492" y="-84.95" font-family="Times,serif" font-size="14.00">xhk</text>
</g>
<!-- bvb&#45;&#45;xhk -->
<g id="edge2" class="edge">
<title>bvb&#45;&#45;xhk</title>
<path fill="none" stroke="black" d="M449.21,-145.46C458.32,-133.86 470.72,-118.08 479.83,-106.49"/>
</g>
<!-- xhk&#45;&#45;hfx -->
<g id="edge33" class="edge">
<title>xhk&#45;&#45;hfx</title>
<path fill="none" stroke="black" d="M479.79,-73.46C470.68,-61.86 458.28,-46.08 449.17,-34.49"/>
</g>
<!-- cmg -->
<g id="node4" class="node">
<title>cmg</title>
<ellipse fill="none" stroke="black" cx="268" cy="-234" rx="27.3" ry="18"/>
<text text-anchor="middle" x="268" y="-228.95" font-family="Times,serif" font-size="14.00">cmg</text>
</g>
<!-- cmg&#45;&#45;bvb -->
<g id="edge3" class="edge">
<title>cmg&#45;&#45;bvb</title>
<path fill="none" stroke="black" d="M290.79,-223.56C323.14,-210.16 382.01,-185.78 414.3,-172.4"/>
</g>
<!-- lhk -->
<g id="node5" class="node">
<title>lhk</title>
<ellipse fill="none" stroke="black" cx="186" cy="-18" rx="27" ry="18"/>
<text text-anchor="middle" x="186" y="-12.95" font-family="Times,serif" font-size="14.00">lhk</text>
</g>
<!-- cmg&#45;&#45;lhk -->
<g id="edge4" class="edge">
<title>cmg&#45;&#45;lhk</title>
<path fill="none" stroke="black" d="M270.51,-215.92C274.19,-184.68 277.77,-117.41 249,-72 238.06,-54.73 219.69,-40.22 205.59,-30.77"/>
</g>
<!-- nvd -->
<g id="node6" class="node">
<title>nvd</title>
<ellipse fill="none" stroke="black" cx="213" cy="-90" rx="27" ry="18"/>
<text text-anchor="middle" x="213" y="-84.95" font-family="Times,serif" font-size="14.00">nvd</text>
</g>
<!-- cmg&#45;&#45;nvd -->
<g id="edge5" class="edge">
<title>cmg&#45;&#45;nvd</title>
<path fill="none" stroke="black" d="M266.3,-215.67C264.05,-197.29 259.11,-167.69 249,-144 243.15,-130.29 233.56,-116.41 225.75,-106.3"/>
</g>
<!-- qnr -->
<g id="node7" class="node">
<title>qnr</title>
<ellipse fill="none" stroke="black" cx="213" cy="-162" rx="27" ry="18"/>
<text text-anchor="middle" x="213" y="-156.95" font-family="Times,serif" font-size="14.00">qnr</text>
</g>
<!-- cmg&#45;&#45;qnr -->
<g id="edge6" class="edge">
<title>cmg&#45;&#45;qnr</title>
<path fill="none" stroke="black" d="M255.79,-217.46C246.68,-205.86 234.28,-190.08 225.17,-178.49"/>
</g>
<!-- nvd&#45;&#45;lhk -->
<g id="edge18" class="edge">
<title>nvd&#45;&#45;lhk</title>
<path fill="none" stroke="black" d="M206.46,-72.05C202.22,-61.05 196.71,-46.76 192.48,-35.79"/>
</g>
<!-- qnr&#45;&#45;nvd -->
<g id="edge22" class="edge">
<title>qnr&#45;&#45;nvd</title>
<path fill="none" stroke="black" d="M213,-143.7C213,-132.85 213,-118.92 213,-108.1"/>
</g>
<!-- frs -->
<g id="node8" class="node">
<title>frs</title>
<ellipse fill="none" stroke="black" cx="158" cy="-234" rx="27" ry="18"/>
<text text-anchor="middle" x="158" y="-228.95" font-family="Times,serif" font-size="14.00">frs</text>
</g>
<!-- frs&#45;&#45;lhk -->
<g id="edge7" class="edge">
<title>frs&#45;&#45;lhk</title>
<path fill="none" stroke="black" d="M159.76,-215.57C162.82,-185.99 169.51,-124.1 177,-72 178.73,-59.99 181.02,-46.51 182.86,-36.15"/>
</g>
<!-- frs&#45;&#45;qnr -->
<g id="edge8" class="edge">
<title>frs&#45;&#45;qnr</title>
<path fill="none" stroke="black" d="M170.21,-217.46C179.32,-205.86 191.72,-190.08 200.83,-178.49"/>
</g>
<!-- lsr -->
<g id="node9" class="node">
<title>lsr</title>
<ellipse fill="none" stroke="black" cx="27" cy="-162" rx="27" ry="18"/>
<text text-anchor="middle" x="27" y="-156.95" font-family="Times,serif" font-size="14.00">lsr</text>
</g>
<!-- frs&#45;&#45;lsr -->
<g id="edge9" class="edge">
<title>frs&#45;&#45;lsr</title>
<path fill="none" stroke="black" d="M137.24,-221.91C112.71,-208.8 72.15,-187.12 47.66,-174.04"/>
</g>
<!-- lsr&#45;&#45;lhk -->
<g id="edge13" class="edge">
<title>lsr&#45;&#45;lhk</title>
<path fill="none" stroke="black" d="M31.01,-143.81C36.38,-124.16 47.69,-92.11 68,-72 94.01,-46.24 134.73,-31.8 160.89,-24.7"/>
</g>
<!-- jqt -->
<g id="node10" class="node">
<title>jqt</title>
<ellipse fill="none" stroke="black" cx="456" cy="-306" rx="27" ry="18"/>
<text text-anchor="middle" x="456" y="-300.95" font-family="Times,serif" font-size="14.00">jqt</text>
</g>
<!-- jqt&#45;&#45;xhk -->
<g id="edge10" class="edge">
<title>jqt&#45;&#45;xhk</title>
<path fill="none" stroke="black" d="M461.58,-288.36C465.02,-277.95 469.42,-264.24 473,-252 482.28,-220.23 487.74,-212.82 492,-180 495.22,-155.18 494.36,-126.13 493.3,-108.15"/>
</g>
<!-- jqt&#45;&#45;nvd -->
<g id="edge11" class="edge">
<title>jqt&#45;&#45;nvd</title>
<path fill="none" stroke="black" d="M440.06,-290.96C395.92,-252.09 272.51,-143.41 228.69,-104.81"/>
</g>
<!-- rhn -->
<g id="node11" class="node">
<title>rhn</title>
<ellipse fill="none" stroke="black" cx="437" cy="-234" rx="27" ry="18"/>
<text text-anchor="middle" x="437" y="-228.95" font-family="Times,serif" font-size="14.00">rhn</text>
</g>
<!-- jqt&#45;&#45;rhn -->
<g id="edge12" class="edge">
<title>jqt&#45;&#45;rhn</title>
<path fill="none" stroke="black" d="M451.4,-288.05C448.41,-277.05 444.54,-262.76 441.56,-251.79"/>
</g>
<!-- rhn&#45;&#45;bvb -->
<g id="edge23" class="edge">
<title>rhn&#45;&#45;bvb</title>
<path fill="none" stroke="black" d="M437,-215.7C437,-204.85 437,-190.92 437,-180.1"/>
</g>
<!-- rhn&#45;&#45;hfx -->
<g id="edge24" class="edge">
<title>rhn&#45;&#45;hfx</title>
<path fill="none" stroke="black" d="M423.25,-218.07C415.04,-208.1 405.38,-194.25 401,-180 385,-127.98 412.58,-64.49 427.87,-35.21"/>
</g>
<!-- rhn&#45;&#45;xhk -->
<g id="edge25" class="edge">
<title>rhn&#45;&#45;xhk</title>
<path fill="none" stroke="black" d="M449.75,-217.7C457.56,-207.59 467.15,-193.71 473,-180 483.11,-156.31 488.05,-126.71 490.3,-108.33"/>
</g>
<!-- ntq -->
<g id="node12" class="node">
<title>ntq</title>
<ellipse fill="none" stroke="black" cx="549" cy="-378" rx="27" ry="18"/>
<text text-anchor="middle" x="549" y="-372.95" font-family="Times,serif" font-size="14.00">ntq</text>
</g>
<!-- ntq&#45;&#45;bvb -->
<g id="edge14" class="edge">
<title>ntq&#45;&#45;bvb</title>
<path fill="none" stroke="black" d="M542.06,-360.11C529.59,-330.31 501.97,-266.73 473,-216 465.5,-202.86 455.81,-188.73 448.37,-178.36"/>
</g>
<!-- ntq&#45;&#45;hfx -->
<g id="edge15" class="edge">
<title>ntq&#45;&#45;hfx</title>
<path fill="none" stroke="black" d="M559.99,-361.22C576.55,-335.85 606,-283.88 606,-235 606,-235 606,-235 606,-161 606,-86.27 507.94,-43 461.21,-26.62"/>
</g>
<!-- ntq&#45;&#45;xhk -->
<g id="edge16" class="edge">
<title>ntq&#45;&#45;xhk</title>
<path fill="none" stroke="black" d="M546.46,-359.64C540.66,-320.77 525.46,-223.9 507,-144 504.2,-131.89 500.38,-118.41 497.29,-108.08"/>
</g>
<!-- ntq&#45;&#45;jqt -->
<g id="edge17" class="edge">
<title>ntq&#45;&#45;jqt</title>
<path fill="none" stroke="black" d="M531.51,-363.83C514.88,-351.32 490.02,-332.6 473.41,-320.11"/>
</g>
<!-- pzl -->
<g id="node13" class="node">
<title>pzl</title>
<ellipse fill="none" stroke="black" cx="86" cy="-234" rx="27" ry="18"/>
<text text-anchor="middle" x="86" y="-228.95" font-family="Times,serif" font-size="14.00">pzl</text>
</g>
<!-- pzl&#45;&#45;hfx -->
<g id="edge19" class="edge">
<title>pzl&#45;&#45;hfx</title>
<path fill="none" stroke="black" d="M90.25,-215.97C99.6,-182.3 125.39,-107.44 177,-72 214.88,-45.99 351.62,-28.33 410.13,-21.8"/>
</g>
<!-- pzl&#45;&#45;nvd -->
<g id="edge20" class="edge">
<title>pzl&#45;&#45;nvd</title>
<path fill="none" stroke="black" d="M99.35,-218.07C123.81,-190.73 175.51,-132.92 199.83,-105.73"/>
</g>
<!-- pzl&#45;&#45;lsr -->
<g id="edge21" class="edge">
<title>pzl&#45;&#45;lsr</title>
<path fill="none" stroke="black" d="M73.2,-217.81C63.3,-206.07 49.67,-189.89 39.78,-178.16"/>
</g>
<!-- rsh -->
<g id="node14" class="node">
<title>rsh</title>
<ellipse fill="none" stroke="black" cx="122" cy="-306" rx="27" ry="18"/>
<text text-anchor="middle" x="122" y="-300.95" font-family="Times,serif" font-size="14.00">rsh</text>
</g>
<!-- rsh&#45;&#45;frs -->
<g id="edge26" class="edge">
<title>rsh&#45;&#45;frs</title>
<path fill="none" stroke="black" d="M130.35,-288.76C136.17,-277.46 143.89,-262.44 149.7,-251.15"/>
</g>
<!-- rsh&#45;&#45;lsr -->
<g id="edge27" class="edge">
<title>rsh&#45;&#45;lsr</title>
<path fill="none" stroke="black" d="M100.57,-294.45C84.33,-285.37 62.69,-270.77 50,-252 35.25,-230.19 29.96,-199.52 28.06,-180.47"/>
</g>
<!-- rsh&#45;&#45;pzl -->
<g id="edge28" class="edge">
<title>rsh&#45;&#45;pzl</title>
<path fill="none" stroke="black" d="M113.65,-288.76C107.83,-277.46 100.11,-262.44 94.3,-251.15"/>
</g>
<!-- rzs -->
<g id="node15" class="node">
<title>rzs</title>
<ellipse fill="none" stroke="black" cx="186" cy="-378" rx="27" ry="18"/>
<text text-anchor="middle" x="186" y="-372.95" font-family="Times,serif" font-size="14.00">rzs</text>
</g>
<!-- rzs&#45;&#45;cmg -->
<g id="edge29" class="edge">
<title>rzs&#45;&#45;cmg</title>
<path fill="none" stroke="black" d="M199.17,-361.9C207.74,-351.64 218.8,-337.53 227,-324 241.47,-300.14 254.22,-270.33 261.52,-251.98"/>
</g>
<!-- rzs&#45;&#45;qnr -->
<g id="edge30" class="edge">
<title>rzs&#45;&#45;qnr</title>
<path fill="none" stroke="black" d="M188.16,-359.85C193.22,-319.78 205.76,-220.38 210.83,-180.23"/>
</g>
<!-- rzs&#45;&#45;lsr -->
<g id="edge31" class="edge">
<title>rzs&#45;&#45;lsr</title>
<path fill="none" stroke="black" d="M162.85,-368.13C141.4,-359.16 109.39,-343.81 86,-324 55.28,-297.97 44.76,-289.85 31,-252 22.39,-228.31 23.12,-198.7 24.79,-180.32"/>
</g>
<!-- rzs&#45;&#45;rsh -->
<g id="edge32" class="edge">
<title>rzs&#45;&#45;rsh</title>
<path fill="none" stroke="black" d="M172.43,-362.15C161.57,-350.28 146.41,-333.7 135.55,-321.82"/>
</g>
</g>
</svg>
